<svg width="13" height="11" viewBox="0 0 13 11" fill="none" xmlns="http://www.w3.org/2000/svg">
<path d="M11.9047 5.26903V4.00683H10.5972V3.135H9.35808V1.8728H10.3233V0.5H8.97472V1.8728H8.00948V3.135H4.78515V1.8728H3.81991V0.5H2.47815V1.8728H3.44339V3.135H2.18378V4.01334H1.05424V5.27554H0V9.77781H1.38283V7.18185H2.18378V9.51106H2.90943V10.5H5.3465V9.08816H3.67615V7.94307H9.10479V9.08816H7.5029V10.5H9.93997V9.51106H10.5972V7.18185H11.6172V9.77781H13V5.26903H11.9047ZM4.5524 6.06929H3.23802V3.9743H4.54555V6.06929H4.5524ZM9.20748 6.06929H7.89995V3.9743H9.20748V6.06929Z" fill="#333333"/>
</svg>
