<svg width="21" height="16" viewBox="0 0 21 16" fill="none" xmlns="http://www.w3.org/2000/svg">
<path d="M18.8149 7.63045V5.61093H16.8033V4.216H14.8971V2.19649H16.382V0H14.3073V2.19649H12.8223V4.216H7.86177V2.19649H6.37678V0H4.31253V2.19649H5.79753V4.216H3.85966V5.62134H2.12191V7.64086H0.5V14.8445H2.62744V10.691H3.85966V14.4177H4.97604V16H8.72538V13.7411H6.15561V11.9089H14.5074V13.7411H12.0429V16H15.7923V14.4177H16.8033V10.691H18.3726V14.8445H20.5V7.63045H18.8149ZM7.50369 8.91086H5.48157V5.55888H7.49316V8.91086H7.50369ZM14.6654 8.91086H12.6538V5.55888H14.6654V8.91086Z" fill="#CC00FF"/>
</svg>
