<svg width="21" height="18" viewBox="0 0 21 18" fill="none" xmlns="http://www.w3.org/2000/svg">
<path fill-rule="evenodd" clip-rule="evenodd" d="M16.382 2.19031V0.940308H14.3073V3.15319H12.8223V5.18778H7.86177V3.15319H6.37678V0.940308H4.31253V3.15319H5.79753V5.18778H3.85966V6.6036H2.12191V8.63819H0.5V15.8956H2.62744V11.711H3.85966V14.6903H4.25V14.0653H4.875V13.4403H5.5V12.8153H6.125V12.1903H6.75V11.5653H7.375V10.9403H8V10.3153H8.625V9.69031H9.25V9.06531H9.875V8.44031H10.5V7.81531H11.125V7.19031H11.75V6.56531H12.375V5.94031H13V5.31531H13.625V4.69031H14.25V4.06531H14.875V3.44031H14.8971V3.15319H15.5V2.81531H16.125V2.19031H16.382ZM16.75 5.18778V5.31531H16.125V5.94031H15.5V6.56531H14.875V7.19031H14.6653V9.91767H12.6538V9.06531H12.375V9.69031H11.75V10.3153H11.125V10.9403H10.5V11.5653H9.875V12.1903H9.25V12.8153H8.625V12.9381H14.5074V14.7839H12.0429V17.0597H15.7923V15.4656H16.8033V11.711H18.3726V15.8956H20.5V8.6277H18.8149V6.59311H16.8033V5.18778H16.75ZM6.75 14.7839V15.3153H6.125V15.9403H5.5V16.5653H4.97604V17.0597H8.72538V14.7839H6.75ZM5.48157 9.91767H7.49316V6.54067H5.48157V9.91767Z" fill="#969696"/>
</svg>
