<svg width="128" height="128" viewBox="0 0 128 128" fill="none" xmlns="http://www.w3.org/2000/svg">
<path d="M128 64C128 99.3462 99.3462 128 64 128C28.6538 128 0 99.3462 0 64C0 28.6538 28.6538 0 64 0C99.3462 0 128 28.6538 128 64Z" fill="#FAE3FF"/>
<path d="M103.912 58.6937V48.9821H94.2559V42.2741H85.1058V32.5626H92.2338V22H82.2749V32.5626H75.1469V42.2741H51.3365V32.5626H44.2085V22H34.3002V32.5626H41.4281V42.2741H32.1264V49.0322H23.7852V58.7437H16V93.385H26.2117V73.4112H32.1264V91.3325H37.485V98.9416H55.4818V88.0787H43.1469V79.2682H83.2354V88.0787H71.406V98.9416H89.4028V91.3325H94.2559V73.4112H101.788V93.385H112V58.6937H103.912ZM49.6177 64.851H39.9115V48.7318H49.5671V64.851H49.6177ZM83.9937 64.851H74.3381V48.7318H83.9937V64.851Z" fill="#CC00FF"/>
</svg>
