<svg width="128" height="128" viewBox="0 0 128 128" fill="none" xmlns="http://www.w3.org/2000/svg">
<path d="M128 64C128 99.3462 99.3462 128 64 128C28.6538 128 0 99.3462 0 64C0 28.6538 28.6538 0 64 0C99.3462 0 128 28.6538 128 64Z" fill="#C4C4C4"/>
<path d="M128 64C128 99.3462 99.3462 128 64 128C28.6538 128 0 99.3462 0 64C0 28.6538 28.6538 0 64 0C99.3462 0 128 28.6538 128 64Z" fill="url(#paint0_linear)"/>
<mask id="path-2-outside-1" maskUnits="userSpaceOnUse" x="54" y="44" width="23" height="39" fill="black">
<rect fill="white" x="54" y="44" width="23" height="39"/>
</mask>
<path d="M66.5607 44.4393C65.9749 43.8536 65.0251 43.8536 64.4393 44.4393L54.8934 53.9853C54.3076 54.5711 54.3076 55.5208 54.8934 56.1066C55.4792 56.6924 56.4289 56.6924 57.0147 56.1066L65.5 47.6213L73.9853 56.1066C74.5711 56.6924 75.5208 56.6924 76.1066 56.1066C76.6924 55.5208 76.6924 54.5711 76.1066 53.9853L66.5607 44.4393ZM64.4393 82.5607C65.0251 83.1464 65.9749 83.1464 66.5607 82.5607L76.1066 73.0147C76.6924 72.4289 76.6924 71.4792 76.1066 70.8934C75.5208 70.3076 74.5711 70.3076 73.9853 70.8934L65.5 79.3787L57.0147 70.8934C56.4289 70.3076 55.4792 70.3076 54.8934 70.8934C54.3076 71.4792 54.3076 72.4289 54.8934 73.0147L64.4393 82.5607ZM64 45.5L64 81.5L67 81.5L67 45.5L64 45.5Z" fill="white" mask="url(#path-2-outside-1)"/>
<line x1="38.5" y1="30.5" x2="89.5" y2="30.5" stroke="white" stroke-width="7" stroke-linecap="round"/>
<line x1="37.5" y1="96.5" x2="90.5" y2="96.5" stroke="white" stroke-width="5" stroke-linecap="round"/>
<defs>
<linearGradient id="paint0_linear" x1="64" y1="0" x2="64" y2="128" gradientUnits="userSpaceOnUse">
<stop stop-color="#6363C9"/>
<stop offset="1" stop-color="#D10F90"/>
</linearGradient>
</defs>
</svg>
